# xmcd
#
# Track frame offsets: 
#        150
#        18627
#        42120
#        63236
#        83613
#        104295
#        129597
#        152506
#        172069
#        195587
#        212227
#
# Disc length: 3177 seconds
#
# Revision: 0
# Processed by: cddbd v1.5.2PL0 Copyright (c) Steve Scherf et al.
# Submitted via: ExactAudioCopyFreeDBPlugin 1.0
#
DISCID=8d0c670b
DTITLE=Kenn Lending Blues Band - Flying High
DYEAR=2011
DGENRE=Blues
TTITLE0=Hard Headed Woman
TTITLE1=When The Welfare
TTITLE2=Why the Bad
TTITLE3=Flying High
TTITLE4=Mojo Club
TTITLE5=To Day I Sing The Blues
TTITLE6=Just A Little While To Stay Here
TTITLE7=Every Day I Have The Blues
TTITLE8=All My Life
TTITLE9=Crazy For My Baby
TTITLE10=Highway Blues
EXTD=
EXTT0=
EXTT1=
EXTT2=
EXTT3=
EXTT4=
EXTT5=
EXTT6=
EXTT7=
EXTT8=
EXTT9=
EXTT10=
PLAYORDER=
